<?xml version="1.0" encoding="UTF-8" standalone="no" ?>
<!DOCTYPE svg PUBLIC "-//W3C//DTD SVG 1.1//EN" "http://www.w3.org/Graphics/SVG/1.1/DTD/svg11.dtd">
<svg xmlns="http://www.w3.org/2000/svg" xmlns:xlink="http://www.w3.org/1999/xlink" version="1.1" width="500" height="500" viewBox="0 0 500 500" xml:space="preserve">
<desc>Created with Fabric.js 3.6.3</desc>
<defs>
</defs>
<g transform="matrix(1.155783918503499 0 0 1.4272959060257577 250.57789195925184 250.7136479530129)"  >
<path style="stroke: none; stroke-width: 1; stroke-dasharray: none; stroke-linecap: butt; stroke-dashoffset: 0; stroke-linejoin: miter; stroke-miterlimit: 4; fill: rgb(0,0,0); fill-rule: nonzero; opacity: 1;"  transform=" translate(-209.61057480898984, -98.78408889442022)" d="M 400.787 63.781 c -0.558 -0.928 -1.149 -1.828 -1.755 -2.714 a 68.166 68.166 0 0 1 5.408 -8.583 q -6.266 -0.026 -12.531 -0.032 q -1.808 -1.848 -3.734 -3.584 c 3.249 -1.632 6.436 -3.4 9.542 -5.337 c 6.647 -4.146 6.3 -16.148 -2.333 -17.85 c -12.85 -2.535 -25.823 -2.946 -38.859 -2.913 a 11.46 11.46 0 0 0 1.363 -5.473 a 10.413 10.413 0 0 0 0.075 -1.214 c 0 -4.917 -4.616 -10.683 -10.031 -10.03 L 132.049 32.1 c -0.274 -0.037 -0.549 -0.07 -0.823 -0.107 c 0.1 -0.026 0.179 -0.064 0.282 -0.084 q 5.7 -1.092 11.4 -2.139 c 8.63 -2.159 17.314 -4.236 25.949 -6.48 c -39.836 3 -79.83 1.573 -119.7 -2.546 c -3.02 0.053 -6.039 0.091 -9.059 0.1 A 226.643 226.643 0 0 0 15.714 32.954 c 0.6 2.294 1.161 4.6 1.66 6.915 c 0.211 0.978 0.388 1.949 0.549 2.915 q 1.442 0.05 2.881 0.1 c -0.595 2.42 -1.325 4.8 -1.823 7.254 c -0.126 0.62 -0.214 1.242 -0.288 1.865 q -0.009 2.206 -0.208 4.38 c 0.051 4.986 0.8 9.992 -0.346 14.824 a 54.521 54.521 0 0 1 -5.074 17.485 c 0.057 6.6 0.644 13.2 1.08 19.8 a 50.914 50.914 0 0 1 -0.155 27.277 a 60.017 60.017 0 0 1 -2.08 5.946 L 12.1 146 c 0.326 7.511 0.027 15.64 3.505 22.523 a 19.577 19.577 0 0 0 4.928 6.3 l -3.419 0.579 c 0.006 3.969 0.054 7.94 0.185 11.9 c 6.443 -0.536 12.9 -0.888 19.345 -0.993 c 18.337 -0.3 36.1 2.558 54.06 5.259 L 203.3 180.2 q -22.5 4.675 -45.044 9.123 c 10.927 -0.738 21.848 -1.144 32.873 -1.46 c 17.041 -0.489 33.979 -2.479 51.01 -3.108 a 171.633 171.633 0 0 1 24.546 0.671 c 9.374 1 18.457 2.868 27.657 4.414 a 159.184 159.184 0 0 0 32.239 -0.878 c 21.754 -3.04 43.466 -6.342 65.234 -9.307 l 1.756 -4.163 a 10.806 10.806 0 0 0 1.764 -2.237 c 7.558 -12.693 7.846 -26.55 7.824 -40.536 c 0.4 -1.041 0.8 -2.082 1.172 -3.13 c -0.154 -0.443 -0.317 -0.879 -0.464 -1.326 q -0.382 -1.167 -0.712 -2.358 c 0.035 -8.085 0.34 -16.157 2.261 -24.018 C 408.7 88.445 408.055 75.893 400.787 63.781 Z M 90.913 44.452 c 1.187 0.013 2.374 0.018 3.561 0.028 a 13.544 13.544 0 0 0 -2.13 4.631 c -0.809 0.424 -1.619 0.847 -2.409 1.306 A 38.173 38.173 0 0 0 90.913 44.452 Z M 39.232 49.965 c 0.548 -2.13 0.968 -4.288 1.31 -6.459 c 3.575 0.1 7.151 0.169 10.726 0.255 q -1.146 1.179 -2.286 2.363 l -10.4 10.752 a 11.528 11.528 0 0 0 -0.829 0.96 C 37.688 55.083 38.544 52.644 39.232 49.965 Z M 37.837 71.726 q 0.145 -0.856 0.251 -1.74 q 0.273 0.34 0.571 0.659 C 38.387 71.007 38.107 71.363 37.837 71.726 Z m 10.541 54.328 a 8.211 8.211 0 0 0 -1.4 6.07 l -8.1 1.03 l 10.243 -8.166 C 48.873 125.345 48.621 125.7 48.378 126.054 Z m 31.694 38.677 a 20.27 20.27 0 0 0 3.895 -2.523 a 10.176 10.176 0 0 0 5.013 1.013 Z m 8.35 -37.874 c 0.908 -0.955 1.806 -1.919 2.711 -2.878 a 10.416 10.416 0 0 0 3.691 0.676 c 1.336 0.009 2.671 0.009 4.007 0.014 c -0.245 0.319 -0.485 0.641 -0.73 0.959 Z m 2.872 35.972 a 9.177 9.177 0 0 0 3.994 -2.394 c 0.893 -0.92 1.8 -1.827 2.7 -2.741 l 12.135 -0.723 a 9.709 9.709 0 0 0 0.2 2.634 Z M 208.051 131.6 l -5.566 0.332 l 5.9 -0.748 C 208.272 131.32 208.161 131.458 208.051 131.6 Z m 48.693 23.678 l -8.781 0.887 l 0.151 -0.2 l 8.639 -1.464 C 256.742 154.761 256.735 155.02 256.744 155.275 Z m 43.978 -6.246 c -0.884 0.018 -1.768 0.027 -2.652 0.047 a 9.634 9.634 0 0 0 -5.109 1.506 c -2.561 -0.383 -5.093 -0.71 -7.612 -0.928 l 16.24 -2.752 A 10.777 10.777 0 0 0 300.722 149.029 Z m 2.921 -23.134 l -2.263 0.135 a 11.511 11.511 0 0 0 0.131 -6.454 c 0.108 -0.154 0.215 -0.31 0.323 -0.465 l 2.475 -0.323 A 11.863 11.863 0 0 0 303.643 125.9 Z M 335.15 42.5 c 0.618 -0.007 1.235 -0.017 1.853 -0.023 a 8.724 8.724 0 0 0 -0.834 0.841 c -0.639 0.746 -1.269 1.5 -1.9 2.246 l -0.169 0.029 A 11.724 11.724 0 0 0 335.15 42.5 Z M 323.14 172.207 q 6.844 -1.846 13.672 -3.768 q 4.629 0.069 9.259 0.182 Q 334.608 170.427 323.14 172.207 Z m 21.919 -25.77 q 1.884 -4.332 3.538 -8.751 c 0.044 2.059 0.091 4.118 0.154 6.177 a 9.263 9.263 0 0 0 1.7 5.027 A 8.305 8.305 0 0 0 345.059 146.437 Z" stroke-linecap="round" />
</g>
<g transform="matrix(1.1090397465010415 0 0 1.1762775402219934 109.0865621582053 256.64342787305833)"  >
<g style=""   >
		<g transform="matrix(1.3333333333333335 0 0 1.3333333333333335 0.6670666666666776 0.6667999999999878)"  >
<path style="stroke: none; stroke-width: 1; stroke-dasharray: none; stroke-linecap: butt; stroke-dashoffset: 0; stroke-linejoin: miter; stroke-miterlimit: 4; fill: rgb(255,255,255); fill-rule: nonzero; opacity: 1;"  transform=" translate(-50.00030000000001, -50.00009999999999)" d="m 84.879 19.172 h -69.758 c -2.832 0.003906 -5.1211 2.2969 -5.1211 5.1289 v 42.121 c 0.003906 2.8242 2.293 5.1133 5.1211 5.1172 h 22.68 l -3.0586 6.2891 h -5.1836 c -0.82812 0 -1.5 0.67188 -1.5 1.5 c 0 0.83203 0.67188 1.5 1.5 1.5 h 40.883 c 0.82812 0 1.5 -0.66797 1.5 -1.5 c 0 -0.82812 -0.67188 -1.5 -1.5 -1.5 h -5.1797 l -3.0625 -6.2891 h 22.68 c 2.8281 -0.003906 5.1172 -2.293 5.1211 -5.1172 v -42.121 c 0 -2.832 -2.2891 -5.125 -5.1211 -5.1289 z m -46.801 58.656 l 3.0586 -6.2891 h 17.723 l 3.0586 6.2891 z m 48.922 -11.406 c 0 1.168 -0.94922 2.1172 -2.1211 2.1172 h -69.758 c -0.5625 0 -1.1016 -0.22266 -1.5 -0.62109 c -0.39844 -0.39453 -0.62109 -0.9375 -0.62109 -1.4961 v -3.2617 h 74 z m 0 -6.2617 h -74 v -35.859 c -0.003906 -0.56641 0.21875 -1.1055 0.61719 -1.5078 c 0.39844 -0.39844 0.9375 -0.62109 1.5039 -0.62109 h 69.758 c 0.56641 0 1.1055 0.22266 1.5039 0.62109 c 0.39844 0.40234 0.62109 0.94141 0.61719 1.5078 z" stroke-linecap="round" />
</g>
		<g transform="matrix(1.3333333333333335 0 0 1.3333333333333335 -13.970141578541869 -11.111583378230813)"  >
<path style="stroke: none; stroke-width: 1; stroke-dasharray: none; stroke-linecap: butt; stroke-dashoffset: 0; stroke-linejoin: miter; stroke-miterlimit: 4; fill: rgb(255,255,255); fill-rule: nonzero; opacity: 1;"  transform=" translate(-39.0223938160936, -41.166312466326886)" d="m 44.191 33.059 c -0.26172 -0.29688 -0.63281 -0.47656 -1.0312 -0.50391 c -0.39453 -0.023438 -0.78516 0.11328 -1.082 0.375 l -8.0781 7.0703 c -0.32031 0.28906 -0.50781 0.69922 -0.51172 1.1289 c -0.007812 0.44531 0.17578 0.87109 0.51172 1.1602 l 8.0703 7.1211 c 0.62109 0.54297 1.5625 0.48047 2.1094 -0.14062 c 0.26562 -0.29688 0.39844 -0.68359 0.375 -1.082 c -0.023438 -0.39453 -0.20703 -0.76562 -0.50391 -1.0273 l -6.7891 -6 l 6.7891 -6 c 0.61328 -0.54297 0.67578 -1.4805 0.14062 -2.1016 z" stroke-linecap="round" />
</g>
		<g transform="matrix(1.3333333333333335 0 0 1.3333333333333335 15.282498984865182 -11.100052761295235)"  >
<path style="stroke: none; stroke-width: 1; stroke-dasharray: none; stroke-linecap: butt; stroke-dashoffset: 0; stroke-linejoin: miter; stroke-miterlimit: 4; fill: rgb(255,255,255); fill-rule: nonzero; opacity: 1;"  transform=" translate(-60.96187423864888, -41.17496042902857)" d="m 57.922 32.93 c -0.625 -0.55078 -1.5742 -0.49609 -2.125 0.125 c -0.55469 0.62109 -0.5 1.5742 0.125 2.125 l 6.7891 6 l -6.7891 6 c -0.30078 0.26172 -0.48047 0.63281 -0.50781 1.0273 c -0.023437 0.39844 0.11328 0.78516 0.375 1.082 c 0.54688 0.62109 1.4883 0.68359 2.1094 0.14063 l 8.1016 -7.1406 c 0.32422 -0.28125 0.50781 -0.69141 0.51172 -1.1172 c 0.007812 -0.44922 -0.17969 -0.875 -0.51172 -1.1719 z" stroke-linecap="round" />
</g>
		<g transform="matrix(1.3333333333333335 0 0 1.3333333333333335 0.6666266666666854 -11.108346726475299)"  >
<path style="stroke: none; stroke-width: 1; stroke-dasharray: none; stroke-linecap: butt; stroke-dashoffset: 0; stroke-linejoin: miter; stroke-miterlimit: 4; fill: rgb(255,255,255); fill-rule: nonzero; opacity: 1;"  transform=" translate(-49.999970000000005, -41.16873995514352)" d="m 53 32.641 c -0.78125 -0.27344 -1.6367 0.13672 -1.9102 0.91797 l -5 14.23 c -0.27344 0.78125 0.13281 1.6328 0.91016 1.9102 c 0.15625 0.054687 0.32422 0.082031 0.48828 0.082031 c 0.64062 0 1.2109 -0.39844 1.4219 -1 l 5 -14.23 c 0.27344 -0.78125 -0.13281 -1.6328 -0.91016 -1.9102 z" stroke-linecap="round" />
</g>
</g>
</g>
<g transform="matrix(1 0 0 1 288.6385122883827 258.6344500689969)" style=""  ><path fill="#ffffff" opacity="1" d="M-65.10-10.70L-65.10-10.70Q-65.10-11.27-65.02-11.55Q-64.95-11.84-64.95-12.12L-64.95-12.12Q-64.95-12.19-65.10-12.76L-65.10-12.76Q-65.38-12.55-65.59-11.80Q-65.80-11.06-65.88-11.06L-65.88-11.06Q-66.02-11.06-66.02-11.63L-66.02-11.63Q-66.02-11.98-65.91-12.34Q-65.80-12.69-65.66-12.76L-65.66-12.76Q-66.02-12.90-66.94-13.12Q-67.86-13.33-68.08-13.33L-68.08-13.33Q-68.43-13.33-68.29-12.83Q-68.15-12.34-68.50-12.34L-68.50-12.34Q-68.86-12.34-69.00-12.69Q-69.14-13.04-69.14-13.61L-69.14-13.61Q-69.35-13.68-69.85-13.79Q-70.35-13.90-70.84-14.11Q-71.34-14.32-71.73-14.75Q-72.12-15.17-72.12-15.88L-72.12-15.88Q-72.12-16.24-72.05-16.45L-72.05-16.45Q-72.12-16.52-72.26-16.52L-72.26-16.52Q-72.40-16.52-72.54-16.45Q-72.69-16.38-72.83-16.38L-72.83-16.38Q-72.97-16.38-73.25-16.59Q-73.54-16.81-73.54-17.44L-73.54-17.44Q-73.54-18.08-73.15-18.01Q-72.76-17.94-72.62-18.22L-72.62-18.22Q-73.11-18.93-73.54-18.86Q-73.96-18.79-74.60-19.08L-74.60-19.08Q-75.24-20.85-75.81-22.66Q-76.38-24.47-76.38-26.88L-76.38-26.88Q-76.02-26.81-75.31-26.81L-75.31-26.81Q-74.74-26.81-74.28-26.84Q-73.82-26.88-73.40-26.88L-73.40-26.88Q-72.76-26.88-72.30-26.74Q-71.84-26.60-71.69-26.03L-71.69-26.03L-71.55-26.03L-71.55-26.10Q-71.55-26.24-71.62-26.38Q-71.69-26.53-71.69-26.74L-71.69-26.74Q-71.69-26.88-71.13-26.88Q-70.56-26.88-69.99-26.88L-69.99-26.88Q-68.78-26.88-68.54-26.84Q-68.29-26.81-68.29-26.31L-68.29-26.31Q-68.08-26.45-67.97-26.67Q-67.86-26.88-67.37-26.88L-67.37-26.88Q-67.44-26.67-67.44-26.31L-67.44-26.31Q-67.44-25.39-67.08-24.57Q-66.73-23.76-66.73-23.19L-66.73-23.19Q-66.73-22.98-66.80-22.84L-66.80-22.84Q-66.59-22.69-66.09-22.20Q-65.59-21.70-65.10-21.13L-65.10-21.13Q-64.53-20.42-63.82-19.71L-63.82-19.71Q-63.82-19.50-63.96-19.36L-63.96-19.36Q-63.68-19.57-63.39-19.57L-63.39-19.57Q-62.90-19.57-62.40-19.22Q-61.90-18.86-61.33-18.79L-61.33-18.79Q-58.35-18.86-56.72-20.07Q-55.09-21.28-54.38-23.16Q-53.67-25.04-53.57-27.38Q-53.46-29.72-53.46-31.99L-53.46-31.99Q-53.46-32.70-53.46-33.48Q-53.46-34.26-53.53-35.25L-53.53-35.25Q-53.53-35.54-53.46-35.61Q-53.39-35.68-53.25-35.68Q-53.10-35.68-52.96-35.71Q-52.82-35.75-52.68-36.10L-52.68-36.10Q-52.82-36.25-53.03-36.42Q-53.25-36.60-53.25-36.74L-53.25-36.74Q-53.25-36.96-52.68-36.96L-52.68-36.96Q-52.82-37.17-52.96-37.17L-52.96-37.17Q-53.25-37.17-53.25-36.96L-53.25-36.96Q-53.60-36.96-53.60-37.38L-53.60-37.38Q-53.60-37.59-53.57-37.81Q-53.53-38.02-53.53-38.23L-53.53-38.23Q-53.53-38.37-53.57-38.52Q-53.60-38.66-53.60-38.73L-53.60-38.73L-53.60-38.87L-53.53-38.94Q-53.39-38.94-53.32-38.84Q-53.25-38.73-53.10-38.73L-53.10-38.73Q-52.96-38.73-52.96-39.37L-52.96-39.37Q-52.96-39.93-53.18-40.25Q-53.39-40.57-53.53-41.00L-53.53-41.00L-53.53-60.65Q-52.18-60.58-50.94-60.51Q-49.70-60.44-48.35-60.44L-48.35-60.44Q-46.79-60.44-44.87-60.65L-44.87-60.65Q-44.73-58.81-44.66-56.71Q-44.59-54.62-44.59-52.56L-44.59-52.56Q-44.59-49.80-44.66-47.14Q-44.73-44.48-44.73-42.21L-44.73-42.21Q-44.73-41.21-44.66-40.29Q-44.59-39.37-44.59-38.59L-44.59-38.59Q-44.59-38.23-44.87-38.20Q-45.16-38.16-45.16-37.81L-45.16-37.81Q-44.59-34.90-44.63-31.78Q-44.66-28.65-44.59-24.82L-44.59-24.82Q-45.65-17.94-49.66-14.07Q-53.67-10.21-61.33-9.85L-61.33-9.85Q-61.55-10.06-61.90-10.10Q-62.26-10.14-62.65-10.14Q-63.04-10.14-63.39-10.17Q-63.75-10.21-63.96-10.42L-63.96-10.42Q-64.39-10.42-64.39-10.56L-64.39-10.56Q-64.39-10.70-64.24-10.70L-64.24-10.70Q-64.31-10.85-64.39-10.85L-64.39-10.85Q-64.53-10.85-64.67-10.77Q-64.81-10.70-65.10-10.70ZM-70.27-14.75L-70.27-14.75Q-70.06-15.17-70.06-15.39L-70.06-15.39Q-70.06-15.46-70.13-15.46L-70.13-15.46Q-70.27-15.46-70.56-15.03L-70.56-15.03Q-70.56-15.53-70.70-15.53L-70.70-15.53Q-70.77-15.53-70.77-15.24L-70.77-15.24Q-70.77-14.75-70.27-14.75ZM-70.27-14.18L-70.27-14.18Q-70.20-14.18-70.17-14.14Q-70.13-14.11-70.06-14.11L-70.06-14.11Q-69.71-14.11-69.67-14.46Q-69.64-14.82-69.42-15.03L-69.42-15.03Q-69.92-15.03-70.10-14.89Q-70.27-14.75-70.27-14.18ZM-68.57-25.74L-68.57-25.74Q-68.57-25.89-68.71-25.89L-68.71-25.89Q-68.86-25.89-68.86-25.74L-68.86-25.74Q-68.86-25.53-68.71-25.53L-68.71-25.53Q-68.71-25.53-68.57-25.74ZM-68.57-24.54L-68.57-24.54Q-68.00-24.54-68.00-24.75L-68.00-24.75Q-68.00-25.11-68.36-25.11L-68.36-25.11Q-68.57-25.11-68.57-24.54ZM-64.81-19.36L-64.81-19.36Q-64.60-19.57-64.60-19.79L-64.60-19.79Q-64.60-20.00-64.95-20.00L-64.95-20.00Q-65.17-20.00-65.45-19.86Q-65.73-19.71-65.73-19.50L-65.73-19.50Q-65.73-19.15-65.24-19.15L-65.24-19.15Q-65.02-19.15-64.81-19.36Z"/><path fill="#ffffff" opacity="1" d="M-0.81-28.58L-0.81-28.58Q-0.96-28.37-1.03-28.37L-1.03-28.37Q-1.17-28.37-1.24-28.76Q-1.31-29.15-1.31-29.51L-1.31-29.51L-1.31-29.93Q-1.17-29.93-1.10-29.15L-1.10-29.15Q-1.10-29.01-0.96-28.90Q-0.81-28.80-0.81-28.58ZM-1.67-31.49L-1.67-31.49Q-1.67-30.92-1.95-30.96Q-2.23-31.00-2.30-30.64L-2.30-30.64Q-2.23-30.14-2.16-29.75Q-2.09-29.36-2.09-29.01L-2.09-29.01Q-2.09-28.72-2.13-28.51Q-2.16-28.30-2.30-28.02L-2.30-28.02Q-2.16-27.66-2.02-27.66L-2.02-27.66Q-1.88-27.66-1.67-27.87Q-1.45-28.09-1.10-28.09L-1.10-28.09Q-0.89-28.09-0.81-28.02L-0.81-28.02Q0.75-23.62 2.02-19.04Q3.30-14.46 4.65-9.85L4.65-9.85Q4.22-9.85 3.80-9.82Q3.37-9.78 2.95-9.78L2.95-9.78Q1.53-9.78 0.04-9.85Q-1.45-9.92-2.66-9.92L-2.66-9.92Q-3.23-9.92-3.69-9.92Q-4.15-9.92-4.57-9.85L-4.57-9.85Q-4.86-10.35-4.93-10.74Q-5.00-11.13-5.07-11.52Q-5.14-11.91-5.25-12.26Q-5.36-12.62-5.71-13.04L-5.71-13.04Q-5.85-14.89-6.63-16.88Q-7.41-18.86-8.34-21.98L-8.34-21.98Q-8.76-23.40-9.04-24.86Q-9.33-26.31-10.04-27.45L-10.04-27.45Q-10.32-27.45-10.57-27.41Q-10.82-27.38-11.10-27.38L-11.10-27.38Q-11.95-27.38-12.88-27.45Q-13.80-27.52-14.65-27.52L-14.65-27.52Q-15.57-27.52-16.35-27.34Q-17.13-27.16-17.70-27.16L-17.70-27.16Q-18.27-27.16-18.41-27.59Q-18.55-28.02-19.12-28.02L-19.12-28.02Q-19.76-28.02-19.76-27.66L-19.76-27.66Q-19.76-27.45-19.69-27.23Q-19.62-27.02-19.62-26.81L-19.62-26.81Q-19.62-26.38-20.01-25.64Q-20.40-24.89-20.89-24.15Q-21.39-23.40-21.78-22.87Q-22.17-22.34-22.17-22.41L-22.17-22.41Q-22.17-22.06-22.06-21.74Q-21.96-21.42-21.96-21.06L-21.96-21.06Q-21.96-20.57-22.45-20.49L-22.45-20.49Q-22.31-20.21-22.31-19.79L-22.31-19.79Q-22.31-19.79-22.38-19.22Q-22.45-18.65-22.63-17.98Q-22.81-17.30-23.13-16.73Q-23.45-16.17-23.94-16.17L-23.94-16.17Q-23.52-15.95-23.52-15.60L-23.52-15.60Q-23.52-15.17-23.73-14.36Q-23.94-13.54-24.23-12.73Q-24.51-11.91-24.83-11.31Q-25.15-10.70-25.36-10.70L-25.36-10.70Q-25.51-10.56-25.51-10.35L-25.51-10.35Q-25.51-10.14-25.08-10.14L-25.08-10.14Q-25.65-9.92-26.29-9.85Q-26.92-9.78-27.70-9.78L-27.70-9.78Q-28.49-9.78-29.34-9.85Q-30.19-9.92-30.97-9.92L-30.97-9.92Q-31.46-9.92-31.89-9.85Q-32.32-9.78-32.67-9.78L-32.67-9.78Q-33.10-9.78-33.17-10.10Q-33.24-10.42-33.81-10.42L-33.81-10.42Q-34.02-10.42-34.02-10.35L-34.02-10.35Q-34.02-10.28-33.88-10.17Q-33.74-10.06-33.74-9.92L-33.74-9.92Q-33.74-9.85-34.16-9.85L-34.16-9.85Q-34.59-9.85-34.59-9.99L-34.59-9.99Q-34.59-10.14-34.23-11.38Q-33.88-12.62-33.31-14.57Q-32.74-16.52-32.00-18.97Q-31.25-21.42-30.44-24.01Q-29.62-26.60-28.80-29.12Q-27.99-31.63-27.35-33.76L-27.35-33.76Q-27.35-34.33-27.28-34.33L-27.28-34.33Q-27.14-34.33-27.07-34.26Q-27.00-34.19-26.85-34.19L-26.85-34.19Q-26.64-34.19-26.50-34.40L-26.50-34.40Q-27.00-34.68-27.00-35.04L-27.00-35.04Q-27.00-35.04-26.92-35.39Q-26.85-35.75-26.75-36.17Q-26.64-36.60-26.43-36.92Q-26.21-37.24-25.93-37.24L-25.93-37.24Q-26.00-37.45-26.00-37.95L-26.00-37.95Q-26.00-39.23-25.68-40.47Q-25.36-41.71-24.94-42.88Q-24.51-44.05-24.05-45.19Q-23.59-46.32-23.31-47.38L-23.31-47.38Q-22.74-50.08-21.96-52.49Q-21.18-54.91-20.47-57.46L-20.47-57.46Q-19.97-57.53-19.90-57.92Q-19.83-58.31-19.62-58.59L-19.62-58.59Q-18.62-59.30-17.45-59.98Q-16.28-60.65-14.72-60.65L-14.72-60.65Q-13.23-60.65-11.99-59.84Q-10.75-59.02-9.75-58.31L-9.75-58.31Q-8.55-55.12-7.66-51.54Q-6.77-47.95-5.43-44.76L-5.43-44.76Q-5.43-43.27-4.93-41.78Q-4.43-40.29-3.83-38.80Q-3.23-37.31-2.73-35.78Q-2.23-34.26-2.16-32.70L-2.16-32.70Q-2.16-32.34-2.30-31.78L-2.30-31.78Q-2.30-31.63-2.16-31.63L-2.16-31.63Q-2.02-31.63-1.99-31.67Q-1.95-31.70-1.81-31.70L-1.81-31.70Q-1.67-31.70-1.67-31.49ZM-17.84-58.31L-17.84-58.31Q-18.13-58.24-18.41-58.28Q-18.69-58.31-18.69-58.03L-18.69-58.03Q-18.48-58.10-18.20-58.06Q-17.91-58.03-17.84-58.31ZM-17.27-36.39L-17.27-36.39L-12.66-36.39Q-13.16-38.23-13.69-40.11Q-14.22-41.99-14.93-43.62L-14.93-43.62Q-15.64-41.92-16.18-40.08Q-16.71-38.23-17.27-36.39ZM-28.27-28.87L-28.27-28.87Q-28.41-28.87-28.41-28.72L-28.41-28.72Q-28.41-28.51-28.13-28.51L-28.13-28.51Q-27.92-28.51-27.78-28.65Q-27.63-28.80-27.70-28.94L-27.70-28.94Q-27.85-28.94-27.99-28.90Q-28.13-28.87-28.27-28.87ZM-21.32-24.54L-21.32-24.54Q-21.32-24.75-21.60-24.75L-21.60-24.75Q-21.89-24.75-21.89-24.54L-21.89-24.54Q-21.89-24.33-21.74-24.33L-21.74-24.33Q-21.60-24.33-21.53-24.40Q-21.46-24.47-21.32-24.54ZM0.04-23.40L0.04-23.40Q0.04-23.90 0.00-24.36Q-0.03-24.82-0.53-24.82L-0.53-24.82Q-0.53-24.68-0.57-24.57Q-0.60-24.47-0.60-24.33L-0.60-24.33Q-0.60-23.47 0.04-23.40ZM-23.59-17.66L-23.59-17.66Q-23.59-17.80-23.80-17.80L-23.80-17.80Q-23.94-17.80-23.94-17.66L-23.94-17.66Q-23.94-17.44-23.80-17.44L-23.80-17.44Q-23.73-17.44-23.59-17.66ZM-25.65-13.90L-25.65-13.90Q-25.22-13.75-25.22-13.54L-25.22-13.54Q-25.22-13.19-25.61-12.58Q-26.00-11.98-26.00-11.41L-26.00-11.41Q-26.00-10.99-25.65-10.70L-25.65-10.70Q-24.80-11.55-24.72-12.80Q-24.65-14.04-24.51-15.03L-24.51-15.03Q-24.23-15.03-24.23-15.17L-24.23-15.17Q-24.23-15.32-24.30-15.32L-24.30-15.32Q-25.01-15.32-25.11-14.78Q-25.22-14.25-25.65-13.90ZM-3.72-11.55L-3.72-11.55Q-3.72-11.77-3.87-11.77L-3.87-11.77Q-4.01-11.77-4.01-11.55L-4.01-11.55Q-4.01-11.41-3.87-11.41L-3.87-11.41Q-3.79-11.41-3.72-11.55ZM-2.30-10.14L-2.30-10.14L-2.30-10.99Q-2.66-10.77-2.87-10.77L-2.87-10.77Q-3.01-10.77-3.16-10.81Q-3.30-10.85-3.44-10.85L-3.44-10.85Q-3.65-10.85-3.72-10.70L-3.72-10.70Q-3.30-10.56-3.08-10.35Q-2.87-10.14-2.30-10.14Z"/><path fill="#ffffff" opacity="1" d="M-67.37 22.08L-67.37 22.08Q-67.44 22.50-67.54 22.86Q-67.65 23.21-68.22 23.21L-68.22 23.21Q-68.22 22.64-68.11 22.36Q-68.00 22.08-67.37 22.08ZM-68.22 23.78L-68.22 23.78Q-68.22 23.57-68.00 23.57Q-67.79 23.57-67.65 23.49L-67.65 23.49Q-67.65 23.71-67.86 23.71Q-68.08 23.71-68.22 23.78ZM-72.83 54.36L-72.83 54.36Q-72.83 54.14-72.62 54.14Q-72.40 54.14-72.26 54.07L-72.26 54.07Q-72.26 54.29-72.47 54.29Q-72.69 54.29-72.83 54.36ZM-76.31 49.46L-76.31 49.46Q-76.31 47.48-76.27 45.49Q-76.23 43.50-76.23 41.44L-76.23 41.44Q-76.23 36.34-76.31 31.33Q-76.38 26.33-76.38 21.29L-76.38 21.29Q-76.38 16.75-76.31 12.32Q-76.23 7.89-76.02 3.56L-76.02 3.56Q-73.40 3.56-70.74 3.63Q-68.08 3.70-65.66 3.70L-65.66 3.70Q-64.67 3.70-63.71 3.63Q-62.75 3.56-61.90 3.56L-61.90 3.56Q-60.27 3.56-58.28 3.88Q-56.30 4.20-54.95 4.76L-54.95 4.76Q-54.67 4.91-54.49 5.19Q-54.31 5.47-54.03 5.61L-54.03 5.61Q-52.47 6.40-51.61 6.86Q-50.76 7.32-50.23 7.78Q-49.70 8.24-49.20 8.91Q-48.71 9.59-47.71 10.79L-47.71 10.79Q-47.14 11.57-46.54 12.14Q-45.94 12.71-45.37 13.70L-45.37 13.70Q-44.09 15.97-43.07 19.02Q-42.04 22.08-41.68 25.20L-41.68 25.20Q-41.68 25.55-41.72 25.91Q-41.75 26.26-41.75 26.62L-41.75 26.62Q-41.75 27.75-41.68 28.85Q-41.61 29.95-41.61 31.02L-41.61 31.02Q-41.61 33.71-42.28 36.27Q-42.96 38.82-44.02 41.13Q-45.09 43.43-46.29 45.42Q-47.50 47.40-48.56 48.89L-48.56 48.89Q-48.85 49.18-49.27 49.28Q-49.70 49.39-50.05 49.75L-50.05 49.75Q-51.69 51.38-53.42 52.30Q-55.16 53.22-57.08 53.72Q-58.99 54.22-61.02 54.36Q-63.04 54.50-65.10 54.50L-65.10 54.50Q-66.51 54.50-67.90 54.46Q-69.28 54.43-70.70 54.43L-70.70 54.43Q-71.27 54.43-71.23 53.75Q-71.20 53.08-71.34 52.94L-71.34 52.94Q-71.41 52.94-71.94 53.01Q-72.47 53.08-72.54 53.51L-72.54 53.51Q-72.90 53.36-73.01 52.83Q-73.11 52.30-73.18 51.73Q-73.25 51.16-73.40 50.74Q-73.54 50.31-73.82 50.31L-73.82 50.31Q-73.89 50.31-73.96 50.63Q-74.03 50.95-74.18 50.95L-74.18 50.95Q-74.25 50.95-74.35 50.67Q-74.46 50.38-74.67 50.07Q-74.89 49.75-75.13 49.46Q-75.38 49.18-75.67 49.18L-75.67 49.18Q-75.81 49.67-76.16 49.67L-76.16 49.67Q-76.31 49.67-76.31 49.46ZM-67.37 12.78L-67.37 16.54Q-67.37 16.90-67.68 16.83Q-68.00 16.75-68.00 17.11L-68.00 17.11Q-68.00 17.46-67.65 17.43Q-67.29 17.39-67.29 17.75L-67.29 17.75Q-67.29 17.89-67.33 18.03Q-67.37 18.17-67.37 18.32L-67.37 18.32Q-67.37 18.60-67.33 18.92Q-67.29 19.24-67.29 19.59L-67.29 19.59Q-67.29 20.23-67.65 20.30L-67.65 20.30Q-67.65 20.02-67.68 19.73Q-67.72 19.45-68.08 19.45L-68.08 19.45Q-68.08 19.45-68.18 19.91Q-68.29 20.37-68.39 20.94Q-68.50 21.51-68.61 21.97Q-68.71 22.43-68.71 22.50L-68.71 22.50Q-68.71 23.00-68.50 23.49L-68.50 23.49Q-68.50 23.78-68.75 23.81Q-69.00 23.85-69.07 24.06L-69.07 24.06Q-68.78 24.13-68.78 24.42L-68.78 24.42Q-68.78 24.70-68.96 25.06Q-69.14 25.41-69.14 25.69L-69.14 25.69Q-69.14 26.12-68.50 26.12L-68.50 26.12Q-68.36 26.12-68.36 25.91L-68.36 25.91Q-68.36 25.76-68.43 25.55Q-68.50 25.34-68.50 25.13L-68.50 25.13Q-68.50 24.63-67.93 24.63L-67.93 24.63Q-67.37 24.91-67.37 25.41L-67.37 25.41Q-67.37 25.76-67.58 26.19Q-67.79 26.62-67.93 26.97L-67.93 26.97Q-67.29 26.97-67.29 27.47L-67.29 27.47Q-67.29 27.82-67.58 27.82L-67.58 27.82Q-68.15 27.82-68.18 27.25Q-68.22 26.69-68.78 26.69L-68.78 26.69Q-68.78 26.83-68.75 26.86Q-68.71 26.90-68.71 27.04L-68.71 27.04Q-68.71 27.33-68.78 27.61Q-68.86 27.89-68.86 28.11L-68.86 28.11Q-68.86 28.60-68.50 28.67L-68.50 28.67Q-68.50 28.39-68.15 28.39L-68.15 28.39Q-67.79 28.39-67.65 28.67L-67.65 28.67Q-67.93 28.96-67.93 29.03L-67.93 29.03Q-67.93 29.17-67.65 29.10Q-67.37 29.03-67.37 29.24L-67.37 29.24L-67.37 45.13Q-66.80 45.35-66.05 45.42Q-65.31 45.49-64.53 45.49L-64.53 45.49Q-63.39 45.49-62.33 45.45Q-61.26 45.42-60.13 45.42L-60.13 45.42Q-59.35 45.13-58.57 44.85Q-57.79 44.57-56.94 44.28L-56.94 44.28Q-55.66 42.65-54.03 41.37L-54.03 41.37Q-53.39 40.24-52.82 39.03Q-52.25 37.83-51.47 36.76L-51.47 36.76Q-51.40 34.85-50.98 33.18Q-50.55 31.51-50.55 29.45L-50.55 29.45Q-50.55 24.56-51.90 21.05Q-53.25 17.53-55.52 14.84L-55.52 14.84Q-55.23 14.77-55.23 14.34L-55.23 14.34Q-55.23 13.92-55.59 13.92L-55.59 13.92Q-55.94 13.92-56.08 14.09Q-56.23 14.27-56.65 14.27L-56.65 14.27Q-57.29 13.28-58.60 13.03Q-59.92 12.78-61.55 12.78L-61.55 12.78Q-62.54 12.78-63.64 12.82Q-64.74 12.85-65.73 12.85L-65.73 12.85Q-66.16 12.85-66.59 12.85Q-67.01 12.85-67.37 12.78L-67.37 12.78ZM-48.85 33.85L-48.85 33.85Q-48.85 33.64-49.13 33.64L-49.13 33.64Q-49.42 33.64-49.42 33.85L-49.42 33.85Q-49.42 34.07-49.27 34.07L-49.27 34.07Q-49.06 34.07-48.85 33.85ZM-75.10 50.60L-75.10 50.60Q-74.74 50.60-74.67 50.92Q-74.60 51.24-74.25 51.24L-74.25 51.24Q-74.18 51.24-74.11 51.20Q-74.03 51.16-73.96 51.16L-73.96 51.16Q-74.39 52.02-74.39 52.37L-74.39 52.37Q-74.39 52.58-74.35 52.90Q-74.32 53.22-74.25 53.79L-74.25 53.79Q-74.67 53.79-74.67 54.00L-74.67 54.00L-74.67 54.07L-74.53 54.07Q-74.67 54.43-75.13 54.39Q-75.60 54.36-75.67 54.36L-75.67 54.36Q-75.67 54.07-75.67 53.61Q-75.67 53.15-76.02 53.15L-76.02 53.15Q-76.09 53.15-76.13 53.19Q-76.16 53.22-76.31 53.22L-76.31 53.22L-76.31 51.73Q-75.95 51.80-75.99 52.23Q-76.02 52.65-75.67 52.65L-75.67 52.65Q-75.67 52.37-75.38 51.98Q-75.10 51.59-75.10 50.60Z"/><path fill="#ffffff" opacity="1" d="M-14.15 46.41L-14.15 46.41Q-14.01 46.41-14.01 46.34L-14.01 46.34Q-14.01 46.20-14.37 45.95Q-14.72 45.70-14.79 45.56L-14.79 45.56Q-14.01 45.28-12.59 45.28L-12.59 45.28Q-11.88 45.28-11.17 45.31Q-10.46 45.35-9.75 45.35L-9.75 45.35Q-9.04 45.35-8.69 45.28L-8.69 45.28Q-8.48 45.49-8.48 45.63L-8.48 45.63Q-8.48 45.84-8.69 45.95Q-8.90 46.06-8.97 46.41L-8.97 46.41Q-8.76 46.34-8.41 46.34L-8.41 46.34Q-7.91 46.34-7.70 46.52Q-7.48 46.70-7.20 46.70L-7.20 46.70Q-7.06 46.70-7.06 46.62L-7.06 46.62Q-7.06 46.41-7.27 46.41L-7.27 46.41Q-7.13 46.27-6.77 46.27L-6.77 46.27Q-6.63 46.27-6.46 46.30Q-6.28 46.34-6.06 46.34L-6.06 46.34Q-5.92 46.34-5.57 46.27Q-5.21 46.20-5.21 45.99L-5.21 45.99Q-5.21 45.70-5.43 45.70L-5.43 45.70Q-5.50 45.77-5.50 45.84L-5.50 45.84Q-5.78 45.77-5.78 45.63L-5.78 45.63Q-5.78 45.49-5.36 45.35Q-4.93 45.21-4.57 45.21L-4.57 45.21Q-4.08 45.21-3.90 45.31Q-3.72 45.42-3.62 45.52Q-3.51 45.63-3.44 45.74Q-3.37 45.84-3.08 45.84L-3.08 45.84Q-2.73 45.84-2.73 45.56Q-2.73 45.28-2.38 45.28L-2.38 45.28Q-1.38 45.28-0.78 45.31Q-0.18 45.35 0.46 45.35L0.46 45.35Q0.82 45.35 1.14 45.35Q1.46 45.35 1.95 45.28L1.95 45.28Q1.95 47.48 1.88 48.75Q1.81 50.03 1.81 51.45L1.81 51.45Q1.81 52.02 1.81 52.58Q1.81 53.15 1.95 53.93L1.95 53.93Q1.74 54.14 1.35 54.22Q0.96 54.29 0.53 54.29L0.53 54.29Q0.04 54.29-0.53 54.25Q-1.10 54.22-1.45 54.22L-1.45 54.22Q-1.45 53.86-1.31 53.65Q-1.17 53.44-1.17 53.08L-1.17 53.08Q-1.52 53.44-2.09 53.47Q-2.66 53.51-2.66 54.22L-2.66 54.22Q-2.87 54.14-2.87 53.90Q-2.87 53.65-2.94 53.36L-2.94 53.36Q-3.16 53.36-3.19 53.51Q-3.23 53.65-3.23 53.83Q-3.23 54.00-3.33 54.11Q-3.44 54.22-3.79 54.22L-3.79 54.22Q-4.65 54.22-4.65 53.79L-4.65 53.79Q-4.65 53.65-4.36 53.36L-4.36 53.36Q-4.93 53.58-4.93 54.22L-4.93 54.22Q-5.28 54.07-5.39 53.79Q-5.50 53.51-5.60 53.22Q-5.71 52.94-5.89 52.73Q-6.06 52.51-6.56 52.51L-6.56 52.51Q-6.99 52.51-7.13 52.65Q-7.27 52.80-7.34 52.94Q-7.41 53.08-7.48 53.22Q-7.55 53.36-7.84 53.36L-7.84 53.36L-7.84 52.51Q-8.12 52.58-8.12 53.01L-8.12 53.01Q-8.12 53.36-7.84 53.36L-7.84 53.36Q-8.05 53.65-8.12 53.65L-8.12 53.65Q-8.34 53.65-8.51 53.33Q-8.69 53.01-9.04 53.01L-9.04 53.01Q-9.12 53.01-9.15 53.05Q-9.19 53.08-9.26 53.08L-9.26 53.08Q-9.12 53.36-8.94 53.40Q-8.76 53.44-8.76 53.58L-8.76 53.58Q-8.76 53.65-8.90 53.86Q-9.04 54.07-9.33 54.07L-9.33 54.07Q-9.54 54.07-9.65 53.93Q-9.75 53.79-9.90 53.79L-9.90 53.79Q-9.97 53.79-10.89 54.00Q-11.81 54.22-12.59 54.22L-12.59 54.22Q-14.58 54.22-16.35 54.11Q-18.13 54.00-19.97 53.65L-19.97 53.65Q-19.97 53.15-19.69 53.08L-19.69 53.08Q-19.76 53.01-19.76 52.87L-19.76 52.87Q-19.76 52.80-19.83 52.80L-19.83 52.80Q-19.97 52.80-20.11 53.12Q-20.25 53.44-20.61 53.44L-20.61 53.44Q-20.89 53.44-21.00 53.26Q-21.11 53.08-21.67 53.08L-21.67 53.08Q-24.72 51.24-26.89 48.61Q-29.05 45.99-29.76 41.80L-29.76 41.80L-29.76 16.12Q-29.55 14.77-29.16 13.60Q-28.77 12.43-28.34 11.22L-28.34 11.22Q-28.20 11.29-27.92 11.29L-27.92 11.29Q-27.63 11.29-27.10 11.11Q-26.57 10.94-26.57 10.79L-26.57 10.79Q-26.57 10.08-27.42 10.08L-27.42 10.08Q-26.92 9.30-26.50 8.56Q-26.07 7.81-25.15 7.46L-25.15 7.46Q-25.01 7.60-25.01 7.89L-25.01 7.89Q-25.01 8.24-25.51 8.56Q-26.00 8.88-26.57 8.95L-26.57 8.95Q-25.86 9.23-25.86 9.66L-25.86 9.66Q-25.86 9.94-26.29 10.37L-26.29 10.37Q-25.43 10.23-25.08 9.55Q-24.72 8.88-24.72 8.10L-24.72 8.10Q-24.72 7.74-24.76 7.50Q-24.80 7.25-24.87 6.89L-24.87 6.89Q-24.51 6.75-24.26 6.50Q-24.02 6.25-23.52 6.25L-23.52 6.25Q-23.38 6.25-23.31 6.29Q-23.23 6.32-23.09 6.32L-23.09 6.32Q-22.67 6.32-22.67 6.04L-22.67 6.04Q-22.67 5.90-22.70 5.83Q-22.74 5.76-22.74 5.61L-22.74 5.61Q-22.74 5.47-22.53 5.47L-22.53 5.47Q-21.96 4.91-21.07 4.55Q-20.18 4.20-19.23 3.98Q-18.27 3.77-17.35 3.66Q-16.42 3.56-15.64 3.42L-15.64 3.42Q-11.53 3.56-8.12 3.49Q-4.72 3.42-1.45 3.70L-1.45 3.70Q-0.89 3.49-0.03 3.45Q0.82 3.42 1.67 3.42L1.67 3.42Q1.88 4.20 1.95 5.15Q2.02 6.11 2.02 7.10L2.02 7.10Q2.02 8.17 1.95 9.27Q1.88 10.37 1.88 11.36L1.88 11.36Q1.88 11.72 1.92 12.00Q1.95 12.28 1.95 12.64L1.95 12.64Q1.03 12.64 0.14 12.67Q-0.74 12.71-1.74 12.71L-1.74 12.71Q-2.80 12.71-3.76 12.57Q-4.72 12.43-5.50 12.07L-5.50 12.07Q-6.06 12.28-6.17 12.46Q-6.28 12.64-7.41 12.64L-7.41 12.64Q-8.48 12.64-9.54 12.67Q-10.61 12.71-11.67 12.71L-11.67 12.71Q-12.81 12.71-13.87 12.64Q-14.93 12.57-15.93 12.36L-15.93 12.36Q-18.76 12.78-19.86 14.91Q-20.96 17.04-20.96 20.30L-20.96 20.30Q-20.96 20.87-20.93 21.51Q-20.89 22.15-20.82 22.78L-20.82 22.78L-9.26 22.78L-9.26 31.72L-13.87 31.72Q-13.73 31.58-13.73 31.44L-13.73 31.44Q-13.73 31.30-13.87 30.87L-13.87 30.87Q-14.15 30.87-14.15 31.19Q-14.15 31.51-14.15 31.72L-14.15 31.72Q-14.65 31.72-15.04 31.69Q-15.43 31.65-15.86 31.65L-15.86 31.65Q-16.92 31.65-18.02 31.69Q-19.12 31.72-20.54 31.72L-20.54 31.72Q-20.68 32.93-20.79 34.53Q-20.89 36.12-20.89 37.76L-20.89 37.76Q-20.89 39.74-20.54 41.41Q-20.18 43.08-19.12 43.86L-19.12 43.86Q-19.12 44.50-19.40 44.53Q-19.69 44.57-19.69 44.99L-19.69 44.99Q-19.12 45.06-18.66 45.38Q-18.20 45.70-17.84 45.70L-17.84 45.70Q-17.42 45.70-17.35 44.99L-17.35 44.99Q-17.06 45.06-17.10 45.31Q-17.13 45.56-17.06 45.84L-17.06 45.84Q-16.92 45.28-15.78 45.28L-15.78 45.28Q-15.22 45.28-15.04 45.45Q-14.86 45.63-14.83 45.88Q-14.79 46.13-14.76 46.30Q-14.72 46.48-14.44 46.48L-14.44 46.48Q-14.22 46.48-14.15 46.41ZM-11.32 53.65L-11.32 53.65Q-11.32 53.93-10.75 53.93L-10.75 53.93L-10.11 53.93Q-10.25 53.65-10.61 53.65Q-10.96 53.65-11.32 53.65ZM-24.02 6.61L-24.02 6.61Q-24.02 7.46-23.45 7.46L-23.45 7.46Q-23.52 7.39-23.52 7.25L-23.52 7.25Q-23.52 6.89-22.99 6.82Q-22.45 6.75-22.45 6.61L-22.45 6.61Q-22.45 6.54-22.81 6.32L-22.81 6.32Q-23.16 6.82-23.52 6.82L-23.52 6.82Q-23.80 6.82-24.02 6.61ZM-28.91 19.88L-28.91 19.88Q-28.91 19.24-29.48 19.02L-29.48 19.02Q-29.48 19.66-28.91 19.88ZM-16.49 23.35L-16.49 23.35Q-16.49 23.14-16.78 23.14L-16.78 23.14Q-17.06 23.14-17.06 23.35L-17.06 23.35Q-17.06 23.57-16.92 23.57L-16.92 23.57Q-16.78 23.57-16.71 23.49Q-16.64 23.42-16.49 23.35ZM-24.02 50.74L-24.02 50.74Q-23.87 50.53-23.73 50.35Q-23.59 50.17-23.59 49.96L-23.59 49.96Q-23.59 49.60-24.02 49.32L-24.02 49.32Q-24.09 49.39-24.23 49.67Q-24.37 49.96-24.37 50.31L-24.37 50.31Q-24.37 50.74-24.02 50.74ZM-21.67 51.59L-21.67 51.59Q-21.89 51.59-21.96 51.52Q-22.03 51.45-22.10 51.45L-22.10 51.45Q-22.24 51.45-22.24 51.59L-22.24 51.59Q-22.24 51.87-21.96 51.87L-21.96 51.87Q-21.74 51.87-21.67 51.59ZM-17.06 53.08L-17.06 53.08Q-17.20 52.87-17.56 52.87L-17.56 52.87Q-17.91 52.87-17.91 53.22L-17.91 53.22Q-17.91 53.58-17.49 53.58L-17.49 53.58Q-17.06 53.58-17.06 53.08ZM-7.27 53.93L-7.27 53.93L-7.48 53.72L-7.27 53.93Q-7.13 54.07-6.99 54.14L-6.99 54.14L-7.06 54.14Q-7.20 54.14-7.27 53.93Z"/><path fill="#ffffff" opacity="1" d="M39.77 38.96L39.77 38.96Q39.91 38.89 39.98 38.82Q40.05 38.75 40.12 38.75L40.12 38.75Q40.19 38.75 40.34 38.96L40.34 38.96Q40.19 39.25 40.05 39.25L40.05 39.25Q39.77 39.25 39.77 38.96ZM22.46 9.23L22.46 9.23Q22.67 9.59 22.95 9.73Q23.24 9.87 23.59 10.08L23.59 10.08Q25.44 17.18 27.53 23.92Q29.62 30.66 31.68 37.54L31.68 37.54Q34.38 29.38 36.72 20.94Q39.06 12.50 41.76 4.34L41.76 4.34Q41.83 4.76 42.11 4.76L42.11 4.76Q42.25 4.76 42.36 4.73Q42.46 4.69 42.61 4.69L42.61 4.69Q42.75 4.69 42.82 4.94Q42.89 5.19 43.03 5.19L43.03 5.19Q43.25 5.19 43.25 4.76L43.25 4.76Q43.25 4.05 43.03 4.05L43.03 4.05Q42.89 4.05 42.89 4.34L42.89 4.34Q42.68 4.34 42.68 4.20L42.68 4.20Q42.68 3.91 43.03 3.70Q43.39 3.49 43.74 3.49L43.74 3.49Q43.81 3.84 43.88 4.13Q43.95 4.41 43.95 4.62L43.95 4.62Q43.95 4.98 43.74 5.47L43.74 5.47Q43.88 5.54 44.17 5.54L44.17 5.54Q44.52 5.54 44.59 5.30Q44.66 5.05 44.66 4.69L44.66 4.69L44.66 4.05Q44.81 4.20 45.02 4.20L45.02 4.20Q45.23 4.20 45.37 3.98Q45.52 3.77 45.80 3.77L45.80 3.77Q46.01 3.91 46.01 4.05L46.01 4.05Q46.01 4.34 45.80 4.59Q45.59 4.83 45.59 5.05L45.59 5.05Q45.59 5.33 46.08 5.47L46.08 5.47Q46.30 5.40 46.37 5.12Q46.44 4.83 46.44 4.52Q46.44 4.20 46.51 3.95Q46.58 3.70 46.93 3.70L46.93 3.70Q47.01 3.70 47.15 4.02Q47.29 4.34 47.47 4.80Q47.64 5.26 47.75 5.72Q47.86 6.18 47.86 6.40L47.86 6.40Q47.86 6.54 47.82 6.68Q47.79 6.82 47.79 6.96L47.79 6.96Q48.00 6.75 48.21 6.75L48.21 6.75Q48.28 6.75 48.42 6.96L48.42 6.96Q48.64 6.54 48.53 5.61Q48.42 4.69 48.99 4.05L48.99 4.05Q49.13 4.20 49.45 4.55Q49.77 4.91 49.91 4.91L49.91 4.91Q50.06 4.91 50.06 4.83L50.06 4.83Q50.06 4.69 49.95 4.44Q49.84 4.20 49.84 3.98L49.84 3.98Q49.84 3.77 50.13 3.77L50.13 3.77Q50.91 3.77 50.91 4.20L50.91 4.20Q50.91 4.76 50.73 5.40Q50.55 6.04 50.30 6.64Q50.06 7.25 49.84 7.64Q49.63 8.03 49.56 8.03L49.56 8.03L49.56 7.96Q49.56 8.24 49.70 8.42Q49.84 8.59 49.84 8.95L49.84 8.95Q48.92 11.15 48.18 13.53Q47.43 15.90 46.79 18.28Q46.15 20.66 45.59 22.86Q45.02 25.06 44.38 26.83L44.38 26.83Q44.03 28.11 43.71 29.38Q43.39 30.66 42.61 31.44L42.61 31.44Q42.75 31.65 42.82 31.83Q42.89 32.01 42.89 32.36L42.89 32.36Q42.54 32.36 42.54 32.79Q42.54 33.21 42.04 33.21L42.04 33.21L42.04 33.64Q42.04 33.99 41.90 34.70Q41.76 35.41 41.61 36.09Q41.47 36.76 41.29 37.29Q41.12 37.83 41.05 37.83L41.05 37.83Q40.69 37.83 40.66 37.54Q40.62 37.26 40.34 37.26L40.34 37.26Q39.98 37.33 39.98 37.47L39.98 37.47Q39.98 37.61 40.19 37.79Q40.41 37.97 40.41 38.18L40.41 38.18Q40.41 38.25 40.37 38.29Q40.34 38.32 40.34 38.39L40.34 38.39Q40.19 38.25 40.12 38.18Q40.05 38.11 39.91 38.11L39.91 38.11Q39.70 38.11 39.66 38.68Q39.63 39.25 39.13 39.25L39.13 39.25Q39.20 39.53 39.20 39.95L39.20 39.95Q39.20 40.66 38.95 41.13Q38.70 41.59 38.56 42.15L38.56 42.15Q38.56 42.72 38.92 42.83Q39.27 42.93 39.41 43.29L39.41 43.29Q39.27 43.64 39.17 44.18Q39.06 44.71 38.95 45.24Q38.85 45.77 38.70 46.16Q38.56 46.55 38.28 46.55L38.28 46.55Q38.07 46.55 38.00 46.48L38.00 46.48Q38.07 46.84 38.17 47.09Q38.28 47.33 38.28 47.62L38.28 47.62Q38.28 47.76 38.17 47.97Q38.07 48.18 37.92 48.18L37.92 48.18Q37.50 48.18 37.53 47.76Q37.57 47.33 37.14 47.33L37.14 47.33Q36.86 47.55 36.86 47.69L36.86 47.69Q36.86 47.83 37.14 48.04Q37.43 48.26 37.43 48.47L37.43 48.47Q37.43 48.75 36.93 48.75L36.93 48.75Q36.65 48.75 36.58 48.47L36.58 48.47Q36.51 48.54 36.08 49.04Q35.65 49.53 35.12 50.14Q34.59 50.74 34.20 51.20Q33.81 51.66 33.81 51.66L33.81 51.66Q33.60 51.66 33.45 51.52Q33.31 51.38 33.10 51.38L33.10 51.38Q32.89 51.38 32.89 51.59Q32.89 51.80 32.82 51.95L32.82 51.95Q32.46 51.73 32.25 51.73L32.25 51.73Q31.89 51.73 31.68 52.02Q31.47 52.30 30.90 52.30L30.90 52.30Q30.62 52.30 30.47 52.23L30.47 52.23Q30.47 52.51 30.86 52.80Q31.25 53.08 31.25 53.22L31.25 53.22Q31.25 53.36 31.01 53.33Q30.76 53.29 30.76 53.44L30.76 53.44Q30.76 53.79 31.25 53.68Q31.75 53.58 31.75 54.00L31.75 54.00Q31.75 54.36 31.33 54.36L31.33 54.36Q30.62 54.36 30.33 53.93Q30.05 53.51 30.05 53.08L30.05 53.08Q30.05 52.73 30.16 52.48Q30.26 52.23 30.47 51.66L30.47 51.66Q29.76 51.66 29.45 52.02Q29.13 52.37 29.13 52.94L29.13 52.94Q29.13 53.29 29.34 53.72L29.34 53.72Q27.57 52.73 27.14 52.16Q26.71 51.59 26.71 51.24L26.71 51.24L26.71 50.88Q26.71 50.81 26.57 50.81L26.57 50.81Q26.50 50.81 26.50 50.88L26.50 50.88Q26.50 50.95 26.47 50.99Q26.43 51.02 26.43 51.09L26.43 51.09Q26.15 51.02 26.15 50.81L26.15 50.81Q26.15 50.53 26.64 50.31Q27.14 50.10 27.35 49.96L27.35 49.96Q27.21 49.67 27.14 49.00Q27.07 48.33 27.00 47.62Q26.93 46.91 26.75 46.41Q26.57 45.91 26.22 45.91L26.22 45.91Q25.93 45.91 25.93 46.20L25.93 46.20Q25.93 46.48 26.15 46.48L26.15 46.48Q26.00 46.70 25.76 46.62Q25.51 46.55 25.51 47.12L25.51 47.12Q25.51 47.40 25.58 47.62L25.58 47.62Q25.44 47.62 25.19 47.40Q24.94 47.19 24.94 46.98L24.94 46.98Q24.94 46.77 25.30 46.77L25.30 46.77Q24.30 45.56 23.95 43.89Q23.59 42.23 23.59 41.30L23.59 41.30Q22.95 40.45 22.67 39.32Q22.39 38.18 22.10 36.97L22.10 36.97Q19.34 28.67 16.96 20.27Q14.58 11.86 12.03 3.49L12.03 3.49Q12.67 3.49 13.38 3.45Q14.08 3.42 14.79 3.42L14.79 3.42Q15.79 3.42 16.46 3.70Q17.14 3.98 17.21 4.91L17.21 4.91Q17.63 4.69 17.85 4.69L17.85 4.69Q18.34 4.69 18.59 5.05Q18.84 5.40 19.55 5.47L19.55 5.47Q19.69 5.19 19.69 5.05L19.69 5.05Q19.69 4.48 18.80 4.27Q17.92 4.05 17.49 4.05L17.49 4.05Q18.27 3.77 19.19 3.77L19.19 3.77Q19.34 3.77 19.51 3.81Q19.69 3.84 19.83 3.84L19.83 3.84Q20.83 3.84 21.25 3.49L21.25 3.49Q21.46 3.70 21.46 3.91L21.46 3.91Q21.46 4.41 20.86 4.87Q20.26 5.33 20.12 5.76L20.12 5.76Q20.26 5.83 20.26 5.83L20.26 5.83Q20.54 5.83 20.65 5.69Q20.75 5.54 20.90 5.54L20.90 5.54Q20.97 5.54 20.97 5.61Q20.97 5.69 20.97 6.11L20.97 6.11Q21.32 5.97 21.46 5.76Q21.61 5.54 21.75 5.54L21.75 5.54Q21.89 5.54 22.10 5.76L22.10 5.76Q21.96 5.97 21.96 6.32L21.96 6.32Q21.96 6.89 22.35 7.35Q22.74 7.81 22.74 8.38L22.74 8.38Q22.74 8.88 22.46 9.23ZM21.53 6.40L21.53 6.40Q21.68 6.25 21.68 6.18L21.68 6.18L21.39 6.32Q21.11 6.47 21.11 6.54L21.11 6.54Q21.11 6.61 21.18 6.61L21.18 6.61Q21.32 6.61 21.53 6.40ZM42.61 30.31L42.61 30.31Q42.68 30.59 42.82 30.59L42.82 30.59Q43.03 30.59 43.03 30.16L43.03 30.16Q43.03 29.95 42.96 29.95L42.96 29.95Q42.82 29.95 42.61 30.31ZM14.65 6.68L14.65 6.68L14.87 6.89L14.65 6.68Q14.51 6.54 14.44 6.40L14.44 6.40L14.44 6.47Q14.44 6.61 14.65 6.68ZM21.25 6.96L21.25 6.96Q21.25 7.10 21.22 7.18Q21.18 7.25 21.18 7.32L21.18 7.32Q21.18 7.74 21.39 7.74L21.39 7.74Q21.75 7.74 21.75 7.32L21.75 7.32Q21.75 6.96 21.25 6.96ZM49.56 7.25L49.56 7.25Q49.42 7.32 49.21 7.32Q48.99 7.32 48.99 7.53L48.99 7.53Q49.13 7.46 49.35 7.46Q49.56 7.46 49.56 7.25ZM48.42 11.29L48.42 11.29Q48.07 11.29 48.07 11.04Q48.07 10.79 47.79 10.72L47.79 10.72Q47.72 10.79 47.72 11.01L47.72 11.01Q47.72 11.22 47.86 11.43Q48.00 11.65 48.14 11.65L48.14 11.65Q48.28 11.65 48.42 11.29ZM25.01 41.59L25.01 41.59Q25.01 41.37 24.87 41.37L24.87 41.37Q24.73 41.37 24.73 41.59L24.73 41.59Q24.73 41.73 24.87 41.73L24.87 41.73Q24.94 41.73 25.01 41.59ZM25.58 48.47L25.58 48.47L25.37 48.26L25.58 48.47Q25.72 48.61 25.86 48.68L25.86 48.68L25.79 48.68Q25.65 48.68 25.58 48.47Z"/></g></svg>